<svg xmlns="http://www.w3.org/2000/svg" width="1018" height="280" viewBox="0 0 1018 280">
<g>
<path d="M 54.50 231.52 C44.05,238.37 35.23,243.97 34.90,243.98 C33.22,244.03 27.38,239.09 25.70,236.22 C23.85,233.06 23.79,229.78 23.86,141.13 C23.91,76.69 24.26,48.45 25.03,46.41 C26.43,42.73 28.72,40.19 32.35,38.32 C32.85,38.06 33.28,37.84 33.73,37.71 C36.19,37.01 39.45,39.13 61.14,53.25 L 61.50 53.49 C69.20,58.50 79.01,64.83 83.30,67.55 C103.71,80.49 110.50,85.53 110.27,87.52 C109.98,90.05 109.98,190.88 110.28,193.37 C110.44,194.70 108.43,196.56 103.27,199.87 C89.62,208.61 73.48,219.09 54.50,231.52 ZM 233.50 263.12 C229.72,264.85 225.10,264.95 150.00,264.89 C106.28,264.86 69.33,264.47 67.89,264.04 C66.46,263.60 61.62,261.34 57.14,259.01 C50.02,255.31 49.01,254.45 49.06,252.14 C49.12,249.87 51.05,248.26 62.81,240.64 C70.34,235.77 83.49,227.22 92.03,221.64 C114.38,207.04 173.72,168.36 182.64,162.58 C189.29,158.26 190.56,157.78 192.87,158.66 C194.32,159.21 205.57,166.35 217.88,174.52 C237.59,187.60 240.49,189.87 242.11,193.44 C243.75,197.06 243.95,200.34 243.93,223.50 C243.91,255.71 243.12,258.70 233.50,263.12 ZM 217.00 107.23 C204.07,115.88 192.58,122.96 191.45,122.98 C190.33,122.99 183.80,119.23 176.95,114.62 C157.30,101.40 64.24,40.49 51.75,32.67 C50.24,31.73 49.00,30.10 49.00,29.06 C49.00,26.97 55.93,22.29 64.36,18.69 C69.49,16.51 69.73,16.50 148.50,16.21 C151.62,16.20 154.63,16.19 157.53,16.18 C223.96,15.93 232.05,15.90 236.50,19.91 C237.31,20.65 238.00,21.51 238.90,22.54 C240.54,24.41 242.36,27.65 242.94,29.72 C243.55,31.90 243.99,44.29 243.99,59.00 C244.00,81.28 243.78,84.94 242.25,88.00 C240.86,90.77 235.61,94.77 217.00,107.23 ZM 538.77 209.16 L 538.50 232.50 L 517.00 233.07 L 517.00 102.93 L 527.25 103.22 L 537.50 103.50 L 538.00 109.33 L 538.50 115.15 L 541.50 111.98 C545.50,107.75 554.18,103.46 561.72,101.98 C573.34,99.69 589.10,104.47 598.57,113.15 C616.79,129.83 620.39,157.16 607.08,177.76 C592.89,199.71 561.11,205.20 542.55,188.91 L 539.04 185.83 ZM 846.75 195.79 C836.56,199.54 824.73,199.28 814.14,195.07 C801.11,189.89 792.44,180.75 787.04,166.50 C784.16,158.91 783.84,144.36 786.36,136.00 C790.32,122.88 799.42,112.07 811.25,106.46 C827.82,98.60 843.04,99.75 856.47,109.89 C862.40,114.36 863.00,114.09 863.00,106.92 L 863.00 103.00 L 883.00 103.00 L 883.00 197.07 L 872.75 196.78 L 862.50 196.50 L 862.20 191.27 L 861.90 186.04 L 856.95 189.94 C854.23,192.10 849.64,194.73 846.75,195.79 ZM 405.44 194.20 C399.06,197.20 397.61,197.48 387.50,197.68 C375.02,197.93 371.39,197.24 363.25,193.11 C339.78,181.17 330.76,152.88 342.59,128.26 C356.02,100.31 393.40,92.63 416.42,113.10 C420.68,116.88 427.00,125.18 427.00,126.99 C427.00,127.32 422.92,129.59 417.93,132.04 C409.78,136.03 408.75,136.31 407.91,134.80 C405.54,130.56 401.47,126.89 396.42,124.42 C391.62,122.07 390.08,121.80 384.04,122.23 C368.69,123.33 358.99,134.45 359.01,150.93 C359.05,176.20 389.05,187.52 405.74,168.56 L 409.89 163.84 L 418.45 168.50 C423.15,171.06 427.00,173.50 427.00,173.91 C427.00,175.75 420.39,184.36 416.58,187.48 C414.28,189.38 409.26,192.40 405.44,194.20 ZM 696.44 194.20 C690.10,197.18 688.55,197.49 678.50,197.73 C669.88,197.94 666.26,197.59 661.76,196.11 C654.01,193.56 647.05,188.93 640.97,182.27 C635.45,176.23 633.10,172.16 630.72,164.50 C621.62,135.15 641.81,104.87 672.77,101.46 C683.67,100.26 698.27,104.91 706.63,112.25 C711.11,116.17 718.00,124.73 717.99,126.34 C717.98,126.98 714.16,129.48 709.50,131.91 L 701.03 136.32 L 696.80 131.52 C686.71,120.05 671.98,118.91 659.26,128.61 C657.45,129.99 654.75,133.46 653.26,136.31 C650.94,140.75 650.54,142.73 650.52,150.00 C650.50,160.17 653.04,166.26 659.57,171.61 C665.33,176.33 669.97,178.00 677.22,177.98 C686.39,177.95 692.38,174.79 698.71,166.67 L 700.91 163.85 L 709.45 168.50 C714.15,171.07 718.00,173.61 718.00,174.15 C718.00,176.11 711.90,183.95 707.69,187.40 C705.32,189.34 700.26,192.40 696.44,194.20 ZM 922.76 159.25 L 922.50 196.50 L 912.33 196.78 C905.82,196.97 901.92,196.68 901.49,195.99 C901.12,195.39 900.91,189.41 901.02,182.70 C901.12,175.99 901.16,159.59 901.10,146.25 L 901.00 122.00 L 894.00 122.00 L 894.00 103.00 L 902.00 103.00 L 902.00 94.02 C902.00,80.15 905.72,72.69 915.25,67.41 C920.19,64.68 921.18,64.51 932.00,64.50 L 943.50 64.50 L 944.07 83.50 L 936.45 83.50 C929.11,83.50 928.73,83.62 925.92,86.77 C923.33,89.66 923.00,90.76 923.00,96.52 L 923.00 103.00 L 944.00 103.00 L 944.00 122.00 L 923.02 122.00 ZM 1002.08 178.00 L 1001.50 196.50 L 993.00 196.66 C978.77,196.92 970.84,194.27 965.10,187.31 C959.38,180.36 959.06,178.00 958.65,138.50 C958.44,118.70 958.50,97.93 958.78,92.35 L 959.29 82.19 L 964.90 81.55 C967.98,81.19 972.64,80.64 975.25,80.32 L 980.00 79.74 L 980.00 102.93 L 990.75 103.22 L 1001.50 103.50 L 1002.08 122.00 L 980.00 122.00 L 980.00 145.55 C980.00,171.94 980.44,174.03 986.53,176.58 C988.41,177.36 992.67,178.00 996.01,178.00 ZM 458.36 196.36 C452.24,197.20 442.51,197.18 441.65,196.32 C441.28,195.95 440.99,166.70 441.01,131.32 L 441.06 67.00 L 463.00 67.00 L 463.00 195.73 ZM 753.00 167.00 L 752.50 196.50 L 742.23 196.79 C734.42,197.00 731.84,196.75 731.45,195.74 C731.17,195.01 731.07,173.96 731.22,148.96 L 731.50 103.50 L 741.75 103.22 L 752.00 102.93 L 752.00 107.97 C752.00,110.73 752.27,113.00 752.61,113.00 C752.94,113.00 754.02,111.97 755.01,110.71 C759.28,105.29 771.90,100.94 778.91,102.48 L 782.00 103.16 L 782.00 112.83 L 782.00 122.50 L 776.67 122.17 C769.49,121.72 763.97,123.36 760.06,127.09 C753.80,133.08 753.55,134.48 753.00,167.00 ZM 822.50 176.13 C827.44,178.38 837.15,178.56 842.96,176.51 C860.87,170.19 866.78,146.25 854.01,131.75 C840.63,116.55 817.82,119.43 808.96,137.43 C805.97,143.51 805.77,144.52 806.20,151.85 C806.56,158.03 807.23,160.71 809.31,164.26 C812.40,169.54 816.88,173.57 822.50,176.13 ZM 556.46 176.19 C561.12,178.15 569.76,178.47 575.40,176.90 C580.78,175.41 589.43,167.05 591.71,161.15 C594.25,154.55 594.03,143.77 591.23,138.38 C586.16,128.62 578.68,123.14 569.25,122.29 C557.37,121.23 547.60,126.53 542.17,137.00 C539.03,143.05 538.83,144.02 539.22,151.04 C539.91,163.24 545.68,171.67 556.46,176.19 ZM 501.02 103.00 L 500.50 196.50 L 490.25 196.66 L 480.00 196.82 L 480.00 103.00 ZM 497.01 90.00 C492.28,92.41 488.61,92.50 484.20,90.33 C480.06,88.29 478.00,84.39 478.00,78.63 C478.00,67.32 492.13,62.12 500.02,70.52 C501.66,72.27 502.46,74.54 502.78,78.35 C503.33,84.93 502.11,87.40 497.01,90.00 Z" fill="rgb(77,57,240)"/>
<path d="M 0.00 140.00 L 0.00 0.00 L 509.00 0.00 L 1018.00 0.00 L 1018.00 140.00 L 1018.00 280.00 L 509.00 280.00 L 0.00 280.00 L 0.00 140.00 ZM 233.50 263.12 C243.12,258.70 243.91,255.71 243.93,223.50 C243.95,200.34 243.75,197.06 242.11,193.44 C240.49,189.87 237.59,187.60 217.88,174.52 C205.57,166.35 194.32,159.21 192.87,158.66 C190.56,157.78 189.29,158.26 182.64,162.58 C173.72,168.36 114.38,207.04 92.03,221.64 C83.49,227.22 70.34,235.77 62.81,240.64 C51.05,248.26 49.12,249.87 49.06,252.14 C49.01,254.45 50.02,255.31 57.14,259.01 C61.62,261.34 66.46,263.60 67.89,264.04 C69.33,264.47 106.28,264.86 150.00,264.89 C225.10,264.95 229.72,264.85 233.50,263.12 ZM 54.50 231.52 C73.48,219.09 89.62,208.61 103.27,199.87 C108.43,196.56 110.44,194.70 110.28,193.37 C109.98,190.88 109.98,90.05 110.27,87.52 C110.50,85.53 103.71,80.49 83.30,67.55 C79.01,64.83 69.20,58.50 61.50,53.49 C35.49,36.56 35.62,36.63 32.35,38.32 C28.72,40.19 26.43,42.73 25.03,46.41 C24.26,48.45 23.91,76.69 23.86,141.13 C23.79,229.78 23.85,233.06 25.70,236.22 C27.38,239.09 33.22,244.03 34.90,243.98 C35.23,243.97 44.05,238.37 54.50,231.52 ZM 538.77 209.16 L 539.04 185.83 L 542.55 188.91 C561.11,205.20 592.89,199.71 607.08,177.76 C620.39,157.16 616.79,129.83 598.57,113.15 C589.10,104.47 573.34,99.69 561.72,101.98 C554.18,103.46 545.50,107.75 541.50,111.98 L 538.50 115.15 L 538.00 109.33 L 537.50 103.50 L 527.25 103.22 L 517.00 102.93 L 517.00 168.00 L 517.00 233.07 L 527.75 232.78 L 538.50 232.50 L 538.77 209.16 ZM 846.75 195.79 C849.64,194.73 854.23,192.10 856.95,189.94 L 861.90 186.04 L 862.20 191.27 L 862.50 196.50 L 872.75 196.78 L 883.00 197.07 L 883.00 150.03 L 883.00 103.00 L 873.00 103.00 L 863.00 103.00 L 863.00 106.92 C863.00,114.09 862.40,114.36 856.47,109.89 C843.04,99.75 827.82,98.60 811.25,106.46 C799.42,112.07 790.32,122.88 786.36,136.00 C783.84,144.36 784.16,158.91 787.04,166.50 C792.44,180.75 801.11,189.89 814.14,195.07 C824.73,199.28 836.56,199.54 846.75,195.79 ZM 405.44 194.20 C409.26,192.40 414.28,189.38 416.58,187.48 C420.39,184.36 427.00,175.75 427.00,173.91 C427.00,173.50 423.15,171.06 418.45,168.50 L 409.89 163.84 L 405.74 168.56 C389.05,187.52 359.05,176.20 359.01,150.93 C358.99,134.45 368.69,123.33 384.04,122.23 C390.08,121.80 391.62,122.07 396.42,124.42 C401.47,126.89 405.54,130.56 407.91,134.80 C408.75,136.31 409.78,136.03 417.93,132.04 C422.92,129.59 427.00,127.32 427.00,126.99 C427.00,125.18 420.68,116.88 416.42,113.10 C393.40,92.63 356.02,100.31 342.59,128.26 C330.76,152.88 339.78,181.17 363.25,193.11 C371.39,197.24 375.02,197.93 387.50,197.68 C397.61,197.48 399.06,197.20 405.44,194.20 ZM 696.44 194.20 C700.26,192.40 705.32,189.34 707.69,187.40 C711.90,183.95 718.00,176.11 718.00,174.15 C718.00,173.61 714.15,171.07 709.45,168.50 L 700.91 163.85 L 698.71 166.67 C692.38,174.79 686.39,177.95 677.22,177.98 C669.97,178.00 665.33,176.33 659.57,171.61 C653.04,166.26 650.50,160.17 650.52,150.00 C650.54,142.73 650.94,140.75 653.26,136.31 C654.75,133.46 657.45,129.99 659.26,128.61 C671.98,118.91 686.71,120.05 696.80,131.52 L 701.03 136.32 L 709.50 131.91 C714.16,129.48 717.98,126.98 717.99,126.34 C718.00,124.73 711.11,116.17 706.63,112.25 C698.27,104.91 683.67,100.26 672.77,101.46 C641.81,104.87 621.62,135.15 630.72,164.50 C633.10,172.16 635.45,176.23 640.97,182.27 C647.05,188.93 654.01,193.56 661.76,196.11 C666.26,197.59 669.88,197.94 678.50,197.73 C688.55,197.49 690.10,197.18 696.44,194.20 ZM 458.36 196.36 L 463.00 195.73 L 463.00 131.36 L 463.00 67.00 L 452.03 67.00 L 441.06 67.00 L 441.01 131.32 C440.99,166.70 441.28,195.95 441.65,196.32 C442.51,197.18 452.24,197.20 458.36,196.36 ZM 500.76 149.75 L 501.02 103.00 L 490.51 103.00 L 480.00 103.00 L 480.00 149.91 L 480.00 196.82 L 490.25 196.66 L 500.50 196.50 L 500.76 149.75 ZM 753.00 167.00 C753.55,134.48 753.80,133.08 760.06,127.09 C763.97,123.36 769.49,121.72 776.67,122.17 L 782.00 122.50 L 782.00 112.83 L 782.00 103.16 L 778.91 102.48 C771.90,100.94 759.28,105.29 755.01,110.71 C754.02,111.97 752.94,113.00 752.61,113.00 C752.27,113.00 752.00,110.73 752.00,107.97 L 752.00 102.93 L 741.75 103.22 L 731.50 103.50 L 731.22 148.96 C731.07,173.96 731.17,195.01 731.45,195.74 C731.84,196.75 734.42,197.00 742.23,196.79 L 752.50 196.50 L 753.00 167.00 ZM 922.76 159.25 L 923.02 122.00 L 933.51 122.00 L 944.00 122.00 L 944.00 112.50 L 944.00 103.00 L 933.50 103.00 L 923.00 103.00 L 923.00 96.52 C923.00,90.76 923.33,89.66 925.92,86.77 C928.73,83.62 929.11,83.50 936.45,83.50 L 944.07 83.50 L 943.78 74.00 L 943.50 64.50 L 932.00 64.50 C921.18,64.51 920.19,64.68 915.25,67.41 C905.72,72.69 902.00,80.15 902.00,94.02 L 902.00 103.00 L 898.00 103.00 L 894.00 103.00 L 894.00 112.50 L 894.00 122.00 L 897.50 122.00 L 901.00 122.00 L 901.10 146.25 C901.16,159.59 901.12,175.99 901.02,182.70 C900.91,189.41 901.12,195.39 901.49,195.99 C901.92,196.68 905.82,196.97 912.33,196.78 L 922.50 196.50 L 922.76 159.25 ZM 1001.79 187.25 L 1002.08 178.00 L 996.01 178.00 C992.67,178.00 988.41,177.36 986.53,176.58 C980.44,174.03 980.00,171.94 980.00,145.55 L 980.00 122.00 L 991.04 122.00 L 1002.08 122.00 L 1001.79 112.75 L 1001.50 103.50 L 990.75 103.22 L 980.00 102.93 L 980.00 91.34 L 980.00 79.74 L 975.25 80.32 C972.64,80.64 967.98,81.19 964.90,81.55 L 959.29 82.19 L 958.78 92.35 C958.50,97.93 958.44,118.70 958.65,138.50 C959.06,178.00 959.38,180.36 965.10,187.31 C970.84,194.27 978.77,196.92 993.00,196.66 L 1001.50 196.50 L 1001.79 187.25 ZM 217.00 107.23 C235.61,94.77 240.86,90.77 242.25,88.00 C243.78,84.94 244.00,81.28 243.99,59.00 C243.99,44.29 243.55,31.90 242.94,29.72 C242.36,27.65 240.54,24.41 238.90,22.54 C232.85,15.65 236.31,15.89 148.50,16.21 C69.73,16.50 69.49,16.51 64.36,18.69 C55.93,22.29 49.00,26.97 49.00,29.06 C49.00,30.10 50.24,31.73 51.75,32.67 C64.24,40.49 157.30,101.40 176.95,114.62 C183.80,119.23 190.33,122.99 191.45,122.98 C192.58,122.96 204.07,115.88 217.00,107.23 ZM 497.01 90.00 C502.11,87.40 503.33,84.93 502.78,78.35 C502.46,74.54 501.66,72.27 500.02,70.52 C492.13,62.12 478.00,67.32 478.00,78.63 C478.00,84.39 480.06,88.29 484.20,90.33 C488.61,92.50 492.28,92.41 497.01,90.00 ZM 556.46 176.19 C545.68,171.67 539.91,163.24 539.22,151.04 C538.83,144.02 539.03,143.05 542.17,137.00 C547.60,126.53 557.37,121.23 569.25,122.29 C578.68,123.14 586.16,128.62 591.23,138.38 C594.03,143.77 594.25,154.55 591.71,161.15 C589.43,167.05 580.78,175.41 575.40,176.90 C569.76,178.47 561.12,178.15 556.46,176.19 ZM 822.50 176.13 C816.88,173.57 812.40,169.54 809.31,164.26 C807.23,160.71 806.56,158.03 806.20,151.85 C805.77,144.52 805.97,143.51 808.96,137.43 C817.82,119.43 840.63,116.55 854.01,131.75 C866.78,146.25 860.87,170.19 842.96,176.51 C837.15,178.56 827.44,178.38 822.50,176.13 Z" fill="rgb(253,253,253)"/>
</g>
</svg>