<svg width="144" height="144" viewBox="0 0 144 144" fill="none" xmlns="http://www.w3.org/2000/svg">
<rect width="144" height="144" rx="30" fill="#4C39F3"/>
<path d="M62.4336 93.3517C63.2279 91.8621 62.4336 55.6138 62.4336 53.6276C62.4336 52.1364 47.1091 43.0887 39.47 38.6712C36.7732 37.1117 32.977 36.2109 31.7587 39.078C31.3607 40.0147 31.2168 41.2328 31.2168 42.2505V105.077C31.2168 106.181 31.3874 107.208 32.0539 108.088C33.5593 110.075 36.5788 109.928 38.7093 108.634C45.8976 104.266 61.8193 94.5036 62.4336 93.3517Z" fill="white"/>
<path d="M92.1399 79.4483C90.6294 79.9448 40.7832 112.717 39.2727 113.71C38.9042 113.953 39.1651 114.313 39.7701 114.72C43.9865 117.554 49.3908 117.718 54.4706 117.776C70.2488 117.955 105.09 118.28 106.741 117.683C108.88 116.91 109.838 116.144 110.769 113.71C111.701 111.277 110.769 92.8552 110.769 91.3655C110.769 89.8759 93.6503 78.9517 92.1399 79.4483Z" fill="white"/>
<path d="M92.1399 68.0276C90.6294 68.0276 39.2727 34.2621 39.2727 33.269C39.2727 32.2759 43.3007 29.1724 46.8252 28.3035C50.3497 27.4345 103.217 27.3104 106.238 28.3035C109.259 29.2966 109.655 31.2828 110.266 33.269C110.877 35.2552 111.273 53.6276 110.266 55.6138C109.259 57.6 93.6504 68.0276 92.1399 68.0276Z" fill="white"/>
</svg>
